<svg xmlns="http://www.w3.org/2000/svg" version="1.1" xmlns:xlink="http://www.w3.org/1999/xlink" width="769.04" height="769.04"><svg xmlns="http://www.w3.org/2000/svg" viewBox="0 0 769.04 769.04"><defs><style>.cls-1{fill:#31170e;}.cls-2{fill:#e9d1c0;}</style></defs><title>favicon_1</title><g id="SvgjsG1015" data-name="Laag 2"><g id="SvgjsG1014" data-name="Layer 2"><circle class="cls-1" cx="384.52" cy="384.52" r="384.52"></circle><g id="SvgjsG1013" data-name="Isolation Mode"><path class="cls-2" d="M386.67,101.52c-157.23,0-285.15,127-285.15,283A282,282,0,0,0,110,453.09h0s18.84,82.07,56.54,104.05l.08.05a71,71,0,0,0,29.47,11.36c.42.07.85.14,1.28.19l1.41.17c1.15.13,2.31.24,3.49.32l.6,0c.12,0,.23,0,.35,0s1.61.12,4.38.12h.06c1.21,0,2.63,0,4.24-.09.83,0,1.65-.08,2.47-.13l.88-.06c49.5-3.2,84.83-36.27,84.83-36.27,14.24,10.37,31.89,18.36,53.78,22.55,95.73,18.33,124.67-48.47,127.32-62.7s-1.45-24.6-11.09-23.87c-8.94.67,1.88,23.66-20.89,44.21a57,57,0,0,1-6,4.85,91.34,91.34,0,0,1-22.47,10.22c-1.95.56-3.93,1.09-6,1.55-.65.16-1.32.27-2,.42-28.19,5.81-63.91,1.82-90.34-16.86a219.56,219.56,0,0,0,22.87-26.54C376.54,443.33,409.49,385,410.63,383c8.44-12.91,16.36-24.51,21.7-31.11,12.36-15.26,25.2-20.65,34.16-21.72a29,29,0,0,1,9.92.87c3.95,1.13,7.67,3.55,11.75,6.37,2.58,1.77,7.35,5.1,11,1,1.22-1.36,4.15-5,4.74-9.17,1.31-9.66-6-14.23-11.59-16.82-11.84-5.47-24.94-5.67-38.94-.54-19.9,7.26-33.74,21.76-43.58,33.59-14.75,17.72-26.43,37.67-37.11,56.59l-1.46,2.6c-16.26,28.78-33.07,58.57-55.14,84.1-2.45,2.85-5,5.62-7.55,8.43l-1.82,2c-.58-.67-1-1.46-1.57-2.15-9.25-14.54-14.62-30.06-16.48-48.49a127,127,0,0,1,1.18-36.11c.16-.87.32-1.74.49-2.61a98.83,98.83,0,0,1,2.7-10.25c9.75-29.89,28.74-51,56.41-62.7a126.71,126.71,0,0,1,26.09-7.45c1.67-.3,5.4-1,9.74-1.66q3.75-.59,7.47-1.13l1.24-.18c9-1.23,12.63-2.57,12.63-7.86,0-3.71-3-5.38-7.21-6.17a28.21,28.21,0,0,0-6-.63l0,0c-24.85-.14-38.66-10.56-46-19.34a45,45,0,0,1-3.32-4.31c-.56-.84-1.22-1.75-1.65-2.49A43.71,43.71,0,0,1,337,264.71c-.24-16.7,7.35-31.2,23.24-44.31a64.55,64.55,0,0,1,35.65-14.53c17.29-1.64,31,2.34,42,12.17,8.75,7.83,12.42,17.72,10.89,29.37-.73,5.52-2.94,10.31-6,15.81-1,1.83-1.1,5.23.3,6.89a8,8,0,0,0,6.71,2.36,16.27,16.27,0,0,0,7.11-3.56c10.24-8.7,14.54-20.15,13.55-33.82,0,0-2.71-44-59.77-47.28-26.7-2.33-94.56,6.31-105.89,62.36s44.63,69.46,44.63,69.46-67.92,6.5-88.66,67.75c-14.11,41.68-10.17,95.92,23.89,132.14-.77.63-1.53,1.22-2.3,1.83-9.86,7.67-49.87,36.79-85.3,34.09-.92-.08-1.84-.19-2.74-.32l-.45-.07c-.42-.06-.82-.14-1.24-.22-21-4-37-24.44-47.11-41.91A269,269,0,0,1,113,384.55C113,234.81,235.77,113,386.67,113s273.66,121.8,273.66,271.52S537.57,656.05,386.67,656.05a275.5,275.5,0,0,1-173.1-61.21,5.74,5.74,0,1,0-7.24,8.92,287,287,0,0,0,180.34,63.77c157.23,0,285.15-127,285.15-283S543.91,101.52,386.67,101.52Z"></path></g></g></g></svg><style>@media (prefers-color-scheme: light) { :root { filter: none; } }
@media (prefers-color-scheme: dark) { :root { filter: none; } }
</style></svg>