<svg xmlns="http://www.w3.org/2000/svg" viewBox="0 0 339.52 106.9"><defs><style>.cls-1{fill:#4f3423;}.cls-2{fill:#4e3423;}.cls-3{fill:#4d3221;}.cls-4{fill:#503625;}</style></defs><title>ellafe</title><g id="Laag_2" data-name="Laag 2"><g id="Laag_1-2" data-name="Laag 1"><path class="cls-1" d="M38.83,75A40,40,0,0,0,42,71.32a92.53,92.53,0,0,0,7.5-11.56c2-3.46,3.87-7,6.14-10.28A36.54,36.54,0,0,1,61,43.15a15.26,15.26,0,0,1,7.17-3.92,8.54,8.54,0,0,1,6.47,1,2.72,2.72,0,0,1,.74,4.3,1.2,1.2,0,0,1-1.78.37,11.68,11.68,0,0,1-1.21-.76,5.11,5.11,0,0,0-4.91-.55,11.43,11.43,0,0,0-5.13,4,60.19,60.19,0,0,0-4.43,6.55C54.57,59.87,51.11,65.53,47.34,71a44.43,44.43,0,0,1-5.13,6.32,3.44,3.44,0,0,0-.26.34c0,.29.23.37.39.47a21.9,21.9,0,0,0,20.34,1.49,9.31,9.31,0,0,0,5.66-6.13,24.73,24.73,0,0,0,.47-2.84c.09-.5.08-1.1.73-1.25a1.64,1.64,0,0,1,1.7.64,2.69,2.69,0,0,1,.59,1.54,7.34,7.34,0,0,1-.45,3.53A16.65,16.65,0,0,1,59.31,85.62a27,27,0,0,1-20.94-3.53c-1-.59-.68-.67-1.6.06a28,28,0,0,1-13.88,6.07C16.64,89,11.56,87,8,81.73a43.38,43.38,0,0,1-5.12-11A53.52,53.52,0,0,1,.11,50.25a52.43,52.43,0,0,1,15-33.8A51.53,51.53,0,0,1,43.23,1.08c18.08-3.37,34.1,1.14,47.66,13.61a51.1,51.1,0,0,1,16.12,30A53.19,53.19,0,0,1,82.14,99a52.69,52.69,0,0,1-26.43,7.92A53.7,53.7,0,0,1,20.35,95.31a4.78,4.78,0,0,1-.63-.55,1.12,1.12,0,0,1-.06-1.43,1.05,1.05,0,0,1,1.4-.26,8,8,0,0,1,.77.57,51.76,51.76,0,0,0,81.92-27.09c4.73-18.16.39-34.38-12.32-48.18A49.43,49.43,0,0,0,62.7,3,51.61,51.61,0,0,0,3.52,42.15a50,50,0,0,0,4.57,35,24.7,24.7,0,0,0,3.27,4.72A10.25,10.25,0,0,0,22.48,85.3a30.53,30.53,0,0,0,8-3.49,36.32,36.32,0,0,0,3.37-2.29c.73-.55.73-.57.15-1.25a20.19,20.19,0,0,1-3.62-6,26.15,26.15,0,0,1,.24-19.54c2-5.08,6-8.24,11-10.19a27.09,27.09,0,0,1,4.63-1.27c-.22-.36-.62-.36-.93-.51s-.73-.32-1.08-.5c-6.44-3.28-7.31-9.3-5-14.88a12.61,12.61,0,0,1,5.27-5.89,22.45,22.45,0,0,1,10-3.11,19.9,19.9,0,0,1,8.19.72,9.62,9.62,0,0,1,6.78,7,7.17,7.17,0,0,1-2.13,7.44,3.15,3.15,0,0,1-1.45.8,1.2,1.2,0,0,1-1.48-1.62,7.28,7.28,0,0,1,.48-1,6.19,6.19,0,0,0-2-8.18,10.11,10.11,0,0,0-7.52-1.75,12.69,12.69,0,0,0-8.85,5.17,9,9,0,0,0-2,6.5,8.48,8.48,0,0,0,4.77,6.89,10.75,10.75,0,0,0,4.81,1.31,11.85,11.85,0,0,1,2.38.23c.8.19,1.14.55,1.14,1.17s-.28,1-1.09,1.21c-1.41.29-2.84.49-4.25.73a23,23,0,0,0-6.72,2.1,17.74,17.74,0,0,0-8.88,10A22.16,22.16,0,0,0,38,73.79,3.72,3.72,0,0,0,38.83,75Z"/><path class="cls-2" d="M258.43,63.64c-1.84,0-3.71,0-5.58,0-.66,0-.64-.51-.75-.89-.67-2.38-1.3-4.77-2-7.16-.18-.64-.13-1.47-.65-1.86s-1.24-.11-1.88-.12h-7.07c-1,0-1,0-1.27,1-.71,2.66-1.39,5.32-2.12,8-.34,1.27-.16,1.08-1.42,1.08a3.11,3.11,0,0,1-1.44-.12,19.34,19.34,0,0,1,.77-3.13q4.17-15.62,8.38-31.2c.28-1,.28-1,1.34-1s2.32,0,3.48,0c.59,0,.81.2,1,.77,1.28,4.82,2.61,9.63,3.92,14.44q2.58,9.52,5.17,19A1.64,1.64,0,0,1,258.43,63.64ZM244.61,35.23l-.19,0c-.7,2.6-1.42,5.21-2.09,7.82s-1.49,5.21-2,7.89h8.6Z"/><path class="cls-3" d="M339.35,61.13c.35,2.51.35,2.51-2.1,2.51H320.7c-1.06,0-1.07,0-1.07-1V29.15c0-1,0-1,.95-1h17.28c1.13,0,1,0,1,1.06,0,1.65.25,1.46-1.45,1.47-3.48,0-7,0-10.44,0-1,0-1,0-1,1.06q0,6,0,12c0,1,0,1,1,1h8.63c1.08,0,1.1,0,1.09,1,0,1.69.23,1.48-1.43,1.48h-8.4c-.86,0-.89,0-.89.84,0,4.07,0,8.15,0,12.23,0,.68.27.78.85.78,3.8,0,7.6,0,11.4,0A2.72,2.72,0,0,1,339.35,61.13Z"/><path class="cls-1" d="M133.37,47.27a1.61,1.61,0,0,0-.12.94q0,5.88,0,11.76c0,1.23,0,1.07,1.13,1.07h11.39c1,0,1,0,1,1,0,1.89.22,1.61-1.55,1.61-5.64,0-11.28,0-16.92,0h-1a.41.41,0,0,1-.44-.45V29.47c0-1.46-.17-1.32,1.37-1.32h17.39c.83,0,.58.69.51,1.06s.5,1.28-.48,1.46a4.7,4.7,0,0,1-.84,0H134.27c-1.09,0-1,0-1,1.06V43.62c0,1.07,0,1.08,1.13,1.08H143c.9,0,.9,0,.92.92,0,1.58,0,1.58-1.58,1.58-2.59,0-5.19,0-7.79,0A3.58,3.58,0,0,0,133.37,47.27Z"/><path class="cls-2" d="M283.27,45.81V29.51c0-.28,0-.56,0-.84s.14-.53.49-.52H302.7c.29,0,.46.12.45.43v.12c.2,2,.2,2-1.78,2H290.7c-1.08,0-1,0-1,1.06V45.29c0,.94-.05.91.92.91,2.95,0,5.91,0,8.87,0,.86,0,.86,0,.88.83,0,1.78,0,1.78-1.73,1.78h-8c-.89,0-.9,0-.9.93V62.57c0,1,0,1.06-1,1.07h-4.44c-.92,0-.93,0-.93-.92,0-1.76,0-3.52,0-5.28Z"/><path class="cls-4" d="M163.53,45.94V29.62a7.85,7.85,0,0,0,0-.84c0-.44.12-.65.6-.64,1.71,0,3.43,0,5.15,0,.5,0,.64.2.61.64,0,.28,0,.56,0,.84V59.48c0,1.56,0,1.56,1.62,1.56h10.91c1,0,1,0,1,1,0,1.93.25,1.63-1.66,1.63-5.6,0-11.2,0-16.79,0h-.84c-.39,0-.61-.13-.59-.55s0-.56,0-.84Z"/><path class="cls-1" d="M199.81,45.94V29.63c0-.28,0-.56,0-.84,0-.45.14-.65.62-.65h5.15c.45,0,.67.15.63.62,0,.28,0,.56,0,.84V59.7c0,1.53-.16,1.33,1.34,1.34h11.15c1,0,1,0,1,1,0,1.94.24,1.63-1.66,1.63-5.59,0-11.19,0-16.78,0h-.84c-.39,0-.61-.14-.59-.56s0-.56,0-.84Z"/><path class="cls-4" d="M198.22,85.74c-.9,0-1.6,0-2.3,0-.41,0-.56-.26-.71-.54-.32-.64-.66-1.28-1-1.93a.82.82,0,0,0-.84-.53c-.76,0-1.52,0-2.27,0-.55,0-.68.27-.67.75s0,1.12,0,1.68c0,.39-.15.54-.56.57C188,85.9,188,85.92,188,84s0-4.16,0-6.24c0-.84,0-.86.86-.86h6.23a2.5,2.5,0,0,1,2.57,1.6,2.74,2.74,0,0,1-.62,3.3c-.58.51-.49.86-.18,1.39C197.32,84,197.72,84.77,198.22,85.74Zm-5.41-6.9H191c-.4,0-.59.15-.57.56a5.58,5.58,0,0,1,0,.71c0,.45.14.66.61.65,1.11,0,2.22,0,3.34,0a.93.93,0,0,0,1-1c0-.55-.36-.83-1.07-.87C193.85,78.82,193.33,78.84,192.81,78.84Z"/><path class="cls-4" d="M224.55,85.86a9.61,9.61,0,0,1-3.14-.44,2.54,2.54,0,0,1-1.72-2.11c-.06-.43,0-.7.54-.68s.88,0,1.32,0,.52.07.56.44.33.54.65.63a7.11,7.11,0,0,0,3.43,0c.27-.06.56-.21.56-.53s-.31-.44-.57-.52a20.51,20.51,0,0,0-2.71-.49,7.55,7.55,0,0,1-2.27-.69,2.25,2.25,0,0,1-1.31-2.12,2.1,2.1,0,0,1,1.3-2,8.06,8.06,0,0,1,6.51,0A2.08,2.08,0,0,1,229,79.08c0,.36,0,.64-.47.64h-1.44a.63.63,0,0,1-.48-.26,3.54,3.54,0,0,0-3.84-.52c-.13.08-.27.18-.25.37a.38.38,0,0,0,.29.33,7.6,7.6,0,0,0,1.75.38,11.31,11.31,0,0,1,3.25.75,2.32,2.32,0,0,1,1.46,2.82,2.58,2.58,0,0,1-1.83,1.88A8.65,8.65,0,0,1,224.55,85.86Z"/><path class="cls-4" d="M248.21,78.84h-5.44c-1.21,0-1.21,0-1.14,1.41h4.63c1.17,0,1.47.44,1.18,1.61-.09.4-.38.33-.65.34-1.48,0-2.95,0-4.43,0-.54,0-.81.13-.8.73s.15.79.75.78c1.63,0,3.27,0,4.91,0,1.09,0,1.09,0,1.07,1.14,0,.12,0,.24,0,.36,0,.4-.16.56-.57.56-2.68,0-5.35,0-8,0-.4,0-.57-.16-.57-.57q0-3.83,0-7.67c0-.45.15-.64.62-.63,1,0,2.08,0,3.11,0,1.52,0,3,0,4.56,0,.61,0,.88.16.81.81A11.1,11.1,0,0,0,248.21,78.84Z"/><path class="cls-1" d="M268.36,85.59l-.18.12c-2.36.17-2.41.19-3.41-1.9a1.56,1.56,0,0,0-1.85-1.06c-.7.1-1.58-.31-2.06.2s-.15,1.3-.14,2-.14.85-.8.83c-2-.06-1.64.23-1.66-1.63,0-2.12,0-4.23,0-6.35,0-.88,0-.89.93-.89,2,0,4,0,6,0a2.63,2.63,0,0,1,2.76,1.67,3,3,0,0,1-.86,3.46l-.38.33Zm-5.43-4.84c.51,0,1,0,1.55,0,.81,0,1.21-.37,1.19-1s-.39-.89-1.16-.91c-1,0-2.06,0-3.09,0-.61,0-.77.24-.72.77a3,3,0,0,1,0,.6c0,.42.17.56.56.55C261.82,80.74,262.37,80.75,262.93,80.75Z"/><path class="cls-4" d="M152,85.85a7.15,7.15,0,0,1-3-.58,4.07,4.07,0,0,1-2.55-4,4,4,0,0,1,2.55-4,8,8,0,0,1,6.29,0,3.91,3.91,0,0,1,2.54,3.84,4.08,4.08,0,0,1-2.42,4.06A7.54,7.54,0,0,1,152,85.85Zm.12-7.14a6,6,0,0,0-1.58.25,2.34,2.34,0,0,0-1.65,2.26,2.31,2.31,0,0,0,1.64,2.38,4.58,4.58,0,0,0,3.16,0,2.23,2.23,0,0,0,1.63-2.25A2.27,2.27,0,0,0,153.74,79,5.4,5.4,0,0,0,152.15,78.71Z"/><path class="cls-4" d="M338.37,80.29c.33,1.91.33,1.91-1.46,1.91-1.16,0-2.32,0-3.48,0-.57,0-.75.18-.76.75s.19.77.76.76c1.64,0,3.27,0,4.91,0,.34,0,.82-.18,1,.22a2.9,2.9,0,0,1,0,1.65c-.05.19-.34.17-.53.17-2.64,0-5.28,0-7.91,0-.46,0-.64-.16-.64-.62,0-2.56,0-5.12,0-7.67,0-.5.23-.59.66-.59h7.78c.45,0,.69.13.65.61a3.84,3.84,0,0,0,0,.48c0,.85,0,.87-.85.88h-4.31c-.24,0-.48,0-.72,0-.56-.06-.78.15-.77.73s.17.7.69.69c1.43,0,2.87,0,4.31,0C337.91,80.25,338.14,80.28,338.37,80.29Z"/><path class="cls-4" d="M320.24,80.5c-.64,0-1.19,0-1.74,0s-.68-.09-.73-.56a1,1,0,0,0-.29-.51,4.06,4.06,0,0,0-3.86-.41,2.32,2.32,0,0,0-1.34,2.56,2.18,2.18,0,0,0,1.56,2.06,4.56,4.56,0,0,0,3.05-.06,1.19,1.19,0,0,0,.88-.75c.15-.76.65-.77,1.24-.74.39,0,.78,0,1.2,0A2.74,2.74,0,0,1,318.73,85a7.42,7.42,0,0,1-7.22,0,2.18,2.18,0,0,1-.56-.45c-2.13-2.08-1.33-6.27,1.45-7.32a7.54,7.54,0,0,1,5.51,0A3.25,3.25,0,0,1,320.24,80.5Z"/><path class="cls-4" d="M167.83,76.88c.66,0,1.25,0,1.85,0,.43,0,.54.21.54.59,0,1.28,0,2.56,0,3.84a2.15,2.15,0,0,0,1.19,2.28,3.12,3.12,0,0,0,3-.15,2,2,0,0,0,.9-1.86c0-1.32,0-2.64,0-4,0-.58.19-.78.76-.74s1,0,1.62,0c0,1.93.09,3.8,0,5.66a3.3,3.3,0,0,1-2.47,2.95,7.6,7.6,0,0,1-4.83,0,3.3,3.3,0,0,1-2.48-3C167.74,80.69,167.83,78.82,167.83,76.88Z"/><path class="cls-4" d="M277.11,77a1.42,1.42,0,0,1,.26-.1,5.93,5.93,0,0,1,2.24.09c.66.29.74,1.25,1.06,1.93.62,1.29,1.21,2.59,1.82,3.89,0,0,.06,0,.17.1.74-1.61,1.56-3.19,2.2-4.83a1.57,1.57,0,0,1,2-1.2,7.36,7.36,0,0,0,1.05,0,1.07,1.07,0,0,1-.17.75c-1.17,2.44-2.36,4.88-3.5,7.34a1.17,1.17,0,0,1-1.27.8c-2-.09-1.5.27-2.37-1.5-1-2.05-2-4.1-2.94-6.15C277.45,77.75,277.29,77.39,277.11,77Z"/><path class="cls-4" d="M126.79,76.88c1,0,1.79,0,2.53,0,.44,0,.63.27.86.55.71.9,1.43,1.81,2.25,2.83.74-.93,1.45-1.76,2.1-2.64a1.5,1.5,0,0,1,1.49-.75,15.49,15.49,0,0,0,1.67,0c.1.43-.23.61-.41.83-.93,1.15-1.84,2.32-2.82,3.42a2.91,2.91,0,0,0-.9,2.47c.06.5,0,1,0,1.55s-.18.59-.63.61c-1.8.09-1.8.11-1.8-1.73a7.53,7.53,0,0,1,0-1,2,2,0,0,0-.59-1.62C129.35,80,128.17,78.57,126.79,76.88Z"/><path class="cls-4" d="M264.41,28.17c1.63,0,3.06,0,4.49,0,.2,0,.39,0,.57,0,.19.37,0,.65-.08.94-.57,2.12-1.16,4.22-1.71,6.34-.12.45-.26.69-.78.7s-.66-.2-.77-.67C265.59,33.11,265,30.71,264.41,28.17Z"/><path class="cls-4" d="M297.37,81.27c0-1.24,0-2.48,0-3.72,0-.51.16-.67.68-.69,1.76-.06,1.76-.08,1.76,1.66q0,3.17,0,6.35c0,.85,0,.87-.85.87-1.84,0-1.55.2-1.57-1.47C297.36,83.27,297.37,82.27,297.37,81.27Z"/><path class="cls-4" d="M333.58,23.53c-2.4,1-4.63,2-6.86,2.92a.79.79,0,0,1-.87-.21c-.19-.16-.32-.33-.1-.58,1.28-1.48,2.55-3,3.82-4.45.17-.2.35-.31.61-.12C331.26,21.88,332.36,22.66,333.58,23.53Z"/></g></g></svg>